# xmcd
#
# Track frame offsets:
#	150
#	13669
#	32209
#	51434
#	67346
#	82371
#	95551
#	112181
#	121906
#	141491
#	156891
#
# Disc length: 2401 seconds
# Revision: 0
# Processed by: cddbd v1.5.2PL0 Copyright (c) Steve Scherf et al.
# Submitted via: dBpowerAMP V12.0
#
DISCID=ab095f0b
DTITLE=North Country Blue - North Country Blue
DYEAR=2019
DGENRE=Bluegrass
TTITLE0=Riding That Midnight Train
TTITLE1=You'll Get No More Of Me
TTITLE2=Hello Florence Thompson
TTITLE3=Sacrifice
TTITLE4=The Counting Song
TTITLE5=Ruby High
TTITLE6=Any Way The Wind Blows
TTITLE7=Little Sadie
TTITLE8=Maera's Waltz
TTITLE9=Pride of Man
TTITLE10=Hard Times
EXTD=
EXTT0=
EXTT1=
EXTT2=
EXTT3=
EXTT4=
EXTT5=
EXTT6=
EXTT7=
EXTT8=
EXTT9=
EXTT10=
PLAYORDER=
